<svg xmlns="http://www.w3.org/2000/svg" width="420" height="420" viewBox="0 0 420 420">
  <g fill="none" stroke="#000000" stroke-width="2" stroke-linecap="round" stroke-linejoin="round" opacity="1">
    <!-- Row 1 -->
    <!-- kalp -->
    <path d="M30 36 c-7-9 -20-4 -20 6 c0 9 13 16 20 22 c7-6 20-13 20-22 c0-10 -13-15 -20-6 z"/>
    <!-- kahve fincanı -->
    <g transform="translate(95,18)">
      <path d="M0 6 h26 v14 a13 13 0 0 1 -26 0 z"/>
      <path d="M26 9 a7 7 0 0 1 0 12"/>
      <path d="M6 0 q3 -5 0 -8 M14 0 q3 -5 0 -8"/>
    </g>
    <!-- futbol topu -->
    <g transform="translate(175,16)">
      <circle cx="14" cy="14" r="13"/>
      <polygon points="14,8 19,12 17,18 11,18 9,12"/>
      <path d="M14 8 v-6 M19 12 l5 -3 M17 18 l4 5 M11 18 l-4 5 M9 12 l-5 -3"/>
    </g>
    <!-- kamera -->
    <g transform="translate(245,16)">
      <rect x="0" y="6" width="34" height="22" rx="3"/>
      <circle cx="17" cy="17" r="6"/>
      <path d="M10 6 l3 -5 h8 l3 5"/>
    </g>
    <!-- ay -->
    <path d="M345 14 a14 14 0 1 0 12 22 a11 11 0 0 1 -12 -22 z"/>
    <!-- balık -->
    <g transform="translate(385,18)">
      <path d="M0 12 q12 -12 24 0 q-12 12 -24 0 z"/>
      <path d="M24 12 l8 -6 v12 z"/>
      <circle cx="7" cy="11" r="1.2" fill="#000" stroke="none"/>
    </g>

    <!-- Row 2 -->
    <!-- müzik notası -->
    <g transform="translate(20,96)">
      <path d="M4 28 v-24 l16 -4 v22"/>
      <circle cx="4" cy="28" r="5"/>
      <circle cx="20" cy="22" r="5"/>
    </g>
    <!-- ev -->
    <g transform="translate(80,92)">
      <path d="M0 14 l16 -13 l16 13"/>
      <path d="M4 12 v18 h24 v-18"/>
      <rect x="12" y="20" width="8" height="10"/>
    </g>
    <!-- elma -->
    <g transform="translate(155,90)">
      <path d="M14 10 c-8 -6 -18 0 -14 12 c3 9 9 14 14 14 c5 0 11 -5 14 -14 c4 -12 -6 -18 -14 -12 z"/>
      <path d="M14 10 q1 -8 8 -9 M14 10 v-6"/>
    </g>
    <!-- gözlük -->
    <g transform="translate(225,98)">
      <circle cx="8" cy="12" r="8"/>
      <circle cx="30" cy="12" r="8"/>
      <path d="M16 12 h6 M0 9 l-3 -3 M38 9 l3 -3"/>
    </g>
    <!-- uçak -->
    <g transform="translate(300,94)">
      <path d="M0 16 l34 -10 l-8 12 l-10 2 l-4 8 l-3 -7 z"/>
    </g>
    <!-- yıldız -->
    <path d="M380 96 l3 9 h9 l-7 6 l3 9 l-8 -6 l-8 6 l3 -9 l-7 -6 h9 z"/>

    <!-- Row 3 -->
    <!-- taco -->
    <g transform="translate(18,178)">
      <path d="M0 24 a18 14 0 0 1 36 0 z"/>
      <path d="M6 22 a14 12 0 0 1 24 0"/>
    </g>
    <!-- bisiklet -->
    <g transform="translate(78,180)">
      <circle cx="8" cy="22" r="8"/>
      <circle cx="34" cy="22" r="8"/>
      <path d="M8 22 l9 -14 h12 M17 8 l9 14 M21 8 l-3 14"/>
    </g>
    <!-- dondurma -->
    <g transform="translate(150,172)">
      <path d="M4 12 a8 8 0 0 1 16 0 z"/>
      <path d="M4 12 l8 18 l8 -18"/>
    </g>
    <!-- güneş -->
    <g transform="translate(215,176)">
      <circle cx="14" cy="14" r="7"/>
      <path d="M14 0 v5 M14 23 v5 M0 14 h5 M23 14 h5 M4 4 l3.5 3.5 M24 24 l-3.5 -3.5 M24 4 l-3.5 3.5 M4 24 l3.5 -3.5"/>
    </g>
    <!-- hediye -->
    <g transform="translate(285,174)">
      <rect x="0" y="8" width="28" height="22" rx="2"/>
      <path d="M14 8 v22 M0 16 h28"/>
      <path d="M14 8 c-6 -10 -14 -2 0 0 c6 -10 14 -2 0 0"/>
    </g>
    <!-- damla -->
    <path d="M378 172 c-7 8 -10 14 -3 20 a7 7 0 0 0 9 -3 c2 -6 -2 -11 -6 -17 z"/>

    <!-- Row 4 -->
    <!-- gülen yüz -->
    <g transform="translate(22,262)">
      <circle cx="14" cy="14" r="13"/>
      <circle cx="9" cy="11" r="1.4" fill="#000" stroke="none"/>
      <circle cx="19" cy="11" r="1.4" fill="#000" stroke="none"/>
      <path d="M8 17 q6 6 12 0"/>
    </g>
    <!-- şemsiye -->
    <g transform="translate(82,258)">
      <path d="M2 14 a14 14 0 0 1 28 0 z"/>
      <path d="M16 14 v14 a4 4 0 0 0 8 0"/>
    </g>
    <!-- kalp 2 -->
    <path d="M168 268 c-7-9 -20-4 -20 6 c0 9 13 16 20 22 c7-6 20-13 20-22 c0-10 -13-15 -20-6 z"/>
    <!-- saat -->
    <g transform="translate(228,260)">
      <circle cx="14" cy="14" r="13"/>
      <path d="M14 6 v8 l6 4"/>
    </g>
    <!-- roket -->
    <g transform="translate(300,256)">
      <path d="M14 0 c8 6 10 16 8 24 h-16 c-2 -8 0 -18 8 -24 z"/>
      <circle cx="14" cy="12" r="3"/>
      <path d="M6 22 l-4 8 M22 22 l4 8 M14 24 v8"/>
    </g>
    <!-- balon -->
    <g transform="translate(376,258)">
      <ellipse cx="10" cy="12" rx="9" ry="11"/>
      <path d="M10 23 v8 M10 23 l-3 3"/>
    </g>

    <!-- Row 5 -->
    <!-- çiçek -->
    <g transform="translate(20,344)">
      <circle cx="14" cy="14" r="4"/>
      <path d="M14 10 a5 5 0 0 1 0 -9 a5 5 0 0 1 0 9 M14 18 a5 5 0 0 0 0 9 a5 5 0 0 0 0 -9 M10 14 a5 5 0 0 1 -9 0 a5 5 0 0 1 9 0 M18 14 a5 5 0 0 0 9 0 a5 5 0 0 0 -9 0"/>
    </g>
    <!-- kupa -->
    <g transform="translate(86,344)">
      <path d="M4 2 h16 v10 a8 8 0 0 1 -16 0 z"/>
      <path d="M10 20 v6 M4 28 h12"/>
      <path d="M20 4 a5 5 0 0 1 0 8 M4 4 a5 5 0 0 0 0 8"/>
    </g>
    <!-- kelebek -->
    <g transform="translate(152,342)">
      <path d="M16 14 c-10 -14 -18 -6 -14 4 c2 6 10 6 14 -4 z"/>
      <path d="M16 14 c10 -14 18 -6 14 4 c-2 6 -10 6 -14 -4 z"/>
      <path d="M16 8 v16"/>
    </g>
    <!-- konuşma balonu -->
    <g transform="translate(222,344)">
      <path d="M0 4 h28 v16 h-18 l-6 6 v-6 h-4 z"/>
    </g>
    <!-- anahtar -->
    <g transform="translate(296,344)">
      <circle cx="8" cy="10" r="7"/>
      <path d="M13 14 l14 14 M22 23 l4 -4 M26 27 l4 -4"/>
    </g>
    <!-- yaprak -->
    <path d="M380 342 c-12 2 -16 12 -10 22 c10 -2 16 -10 14 -22 q-8 6 -10 14"/>
  </g>
</svg>
